<?xml version="1.0" encoding="utf-8"?>
<!-- Generator: Adobe Illustrator 15.0.0, SVG Export Plug-In . SVG Version: 6.00 Build 0)  -->
<!DOCTYPE svg PUBLIC "-//W3C//DTD SVG 1.1//EN" "http://www.w3.org/Graphics/SVG/1.1/DTD/svg11.dtd">
<svg version="1.1" xmlns="http://www.w3.org/2000/svg" xmlns:xlink="http://www.w3.org/1999/xlink" x="0px" y="0px"
	 width="841.89px" height="595.276px" viewBox="0 0 841.89 595.276" enable-background="new 0 0 841.89 595.276"
	 xml:space="preserve">
<g id="レイヤー_1">
	<g>
		<path fill="#231815" d="M314.083,254.718c0,0-3.875,2.292-3.667,6.875l4.792,74.458c0,0,0.75,8.438,4.25,13.875
			c0,0,0.438,1.75,2.438-0.313c0,0,6.188-6.813,6.313-8c0,0,0.375-2.625-0.75-2.938c0,0-0.938-0.938-2.188,0.625
			c0,0-1.375,1.688-2.875-0.375c0,0-1.927-3.063-3.058-9.5c0,0-3.317-24.375-2.942-29.938c0,0-0.063-5.563,1.625-6.375
			c0,0,1.625-1.188,3.688,0.938c0,0,7.313,8.125,13.438,9.938c0,0,9.563,3.625,15.813-0.375c0,0,9.375-7.438,13.125-14.063
			c0,0,4.438-7.125,5.625-9.5c0,0,1.938-2.688,3.375-0.063c0,0,1.188,8.688,2.438,13.625c0,0,1.313,7.875,8,13.875
			c0,0,13.938,11.75,25.063,15.688c0,0,4.25,1,5.063,0.125c0,0,1.875-1.813-1.375-3.063c0,0-10.813-3.5-16.313-9.125
			c0,0-8.563-5.688-11.125-11.938c0,0-3.5-5.063-3.75-16.563v-20.875c0,0-0.313-4.313-3.125-3.5c0,0-1.938,0.125-3.125,3.813
			c0,0-2.063,5.938-9.438,17.313c0,0-8.75,14-15.375,18.438c0,0-5.5,4.375-12,1.438c0,0-9.625-3.938-12.375-8.438
			c0,0-6-8.563-7.313-17.438c0,0-0.688-7.063-0.688-10.063C317.646,263.301,317.458,252.822,314.083,254.718z"/>
		<path fill="#231815" d="M430.999,272.968c0,0-4.416-6.167-10.166-6.417c0,0-6.125-0.813-9.063,2.375c0,0-3.813,3.563-6.25,10.625
			c0,0-2.938,6.75-2.438,17.063c0,0,0.563,8.875,8.063,10.75c0,0,9.563,2.188,15.688-1.438c0,0,12.125-7.313,14.938-10.563
			c0,0,3.5-3.125,2.188-4.25c0,0-1-1.188-2.563,0.063c0,0-5.5,4.75-9.75,7.063c0,0-6.25,4.625-10.813,5.375
			c0,0-6.938,1.438-10.313-2.125c0,0-4.625-4.375-3.5-10.313c0,0,1.188-11.313,6.063-16.75c0,0,2.625-3.75,6.5-2.688
			c0,0,5.5,0.625,8.438,4c0,0,2.75,1.813,3.875,0.5C431.896,276.239,433.131,275.356,430.999,272.968z"/>
		<path fill="#231815" d="M527.521,250.489c0,0-9.188-7.188-19.375-8.25c0,0-23.5-0.25-31.625,2.938c0,0-8.563,2.938-9.313,3.875
			c0,0,1-7.063,1.438-7.188c0,0,0.687-3.354-1.271-3.438c0,0-1.466-0.362-2.291,1.25c0,0-2.625,4.375-4.125,12.125
			c0,0-6,5.563-9.375,10.313c0,0-5.625,7.188-4.563,10c0,0,3.188,7.688,7.938,8.563c0,0-0.542,25.876,1.708,36.792
			c0,0,2,7.834,1.167,12c0,0-0.084,1.5-4.5,5.75c0,0-12.813,12.093-20.313,15.4c0,0-4.375,2.558-3.313,5.183c0,0,1.063,2.438,6.5,0
			c0,0,5.459-1.938,11.104-7.688c0,0,10.583-10.313,11.833-11.313c0,0,2.75-0.563,5.063-0.25c0,0,3.563,1.188,4.125-1.813
			c0,0-0.125-4.938,2.438-7c0,0,17.188-11.691,25.375-19.721c0,0,17.5-13.529,22.313-21.092c0,0,10.625-13.688,12.25-20.75
			C530.708,266.176,533.833,256.989,527.521,250.489z M457.416,272.051c-0.5,4.958-1.792,4.875-1.792,4.875
			c-1.042,0.125-1.875-0.75-1.875-0.75c-2.708-1.667-1.791-8.375-1.791-8.375c1.541-4.292,4.291-5.333,4.291-5.333
			c1.146-0.704,1.959,0.792,1.959,0.792C458.583,265.926,457.416,272.051,457.416,272.051z M527.833,264.239
			c-0.875,7.688-13.5,22.188-13.5,22.188c-5.25,5.813-19.688,17.438-19.688,17.438c-5.063,4.875-23.125,18.063-23.125,18.063
			c-2.875,2.25-4.688,3.188-4.688,3.188c-2,0.688-2.688-3.375-2.688-3.375c0.5-3.438-2.563-8.875-2.563-8.875
			c-1.313-6.625-0.688-22.875-0.688-22.875c-0.25-8.625,0.688-22.5,0.688-22.5c0.188-5.375,2.938-9.938,2.938-9.938
			c2.813-4.5,10.438-6.875,10.438-6.875c9.438-3.813,25-4.438,25-4.438c14.563-1.125,24.125,5.375,24.125,5.375
			C529.646,253.301,527.833,264.239,527.833,264.239z"/>
	</g>
</g>
<g id="レイヤー_2">
</g>
</svg>
