<?xml version="1.0" encoding="utf-8"?>
<!-- Generator: Adobe Illustrator 15.0.0, SVG Export Plug-In . SVG Version: 6.00 Build 0)  -->
<!DOCTYPE svg PUBLIC "-//W3C//DTD SVG 1.1//EN" "http://www.w3.org/Graphics/SVG/1.1/DTD/svg11.dtd">
<svg version="1.1" id="レイヤー_1" xmlns="http://www.w3.org/2000/svg" xmlns:xlink="http://www.w3.org/1999/xlink" x="0px"
	 y="0px" width="841.89px" height="595.28px" viewBox="0 0 841.89 595.28" enable-background="new 0 0 841.89 595.28"
	 xml:space="preserve">
<g>
	<path fill="#1E2A6D" d="M208.1,219.693c0.475-0.395,0.988-0.534,1.542-0.415c0.552,0.119,1.027,0.415,1.423,0.89
		c0.395,0.475,0.553,0.99,0.475,1.542c-0.08,0.554-0.356,1.029-0.831,1.423c-3.956,3.007-8.305,5.261-13.05,6.763
		c-4.746,1.503-9.651,2.453-14.712,2.848c-5.063,0.396-10.144,0.356-15.246-0.119c-5.102-0.475-9.986-1.187-14.652-2.136
		c0,0.554-0.08,0.949-0.237,1.187L90.881,335.014c-0.396,0.632-0.99,0.949-1.779,0.949c-0.317,0-0.712-0.08-1.187-0.237
		c-0.475-0.317-0.792-0.753-0.949-1.305c-0.158-0.555-0.08-1.109,0.237-1.661l61.813-103.101c-3.956-0.869-7.575-1.759-10.855-2.669
		c-3.283-0.908-6.19-1.72-8.72-2.432l-2.373-0.712c-1.661-0.475-3.837-1.008-6.525-1.602c-2.69-0.593-5.498-0.988-8.423-1.187
		c-2.927-0.196-5.834-0.078-8.72,0.356c-2.888,0.436-5.32,1.405-7.297,2.907c-3.244,2.295-4.864,6.21-4.864,11.746
		c0,4.746,0.909,8.503,2.729,11.271c1.818,2.77,3.856,4.826,6.11,6.169c2.254,1.346,4.349,2.215,6.288,2.61
		c1.938,0.396,2.985,0.593,3.144,0.593c0.632,0,1.127,0.219,1.483,0.652c0.356,0.436,0.534,0.97,0.534,1.602
		c-0.08,0.554-0.317,1.029-0.712,1.424c-0.397,0.396-0.872,0.593-1.424,0.593h-0.237c-2.215-0.315-4.152-0.771-5.813-1.364
		s-3.44-1.424-5.339-2.492s-3.659-2.53-5.28-4.39c-1.622-1.857-2.986-4.132-4.093-6.822c-1.109-2.688-1.661-5.971-1.661-9.847
		c0-6.801,2.174-11.864,6.525-15.186c2.373-1.739,5.081-2.907,8.127-3.5c3.044-0.593,6.169-0.81,9.373-0.652
		c3.204,0.159,6.307,0.534,9.313,1.127c3.005,0.593,5.654,1.207,7.949,1.839l2.491,0.831c2.768,0.792,6.069,1.72,9.907,2.788
		c3.835,1.068,8.008,2.037,12.517,2.907c4.509,0.871,9.213,1.542,14.119,2.017c4.903,0.474,9.768,0.554,14.593,0.237
		c4.824-0.315,9.471-1.146,13.941-2.492C200.288,224.637,204.381,222.541,208.1,219.693z"/>
	<path fill="#1E2A6D" d="M154.946,312.353c-1.661,2.296-3.58,4.47-5.754,6.525c-2.176,2.059-4.351,3.877-6.525,5.458
		c-2.176,1.583-4.292,2.829-6.348,3.737c-2.058,0.91-3.837,1.364-5.339,1.364c-1.82,0-3.44-0.315-4.864-0.949
		c-1.424-0.632-2.569-1.62-3.44-2.966c-1.661-2.136-2.492-5.141-2.492-9.017c0-3.085,0.475-6.446,1.424-10.085
		c0.949-3.638,2.295-7.297,4.034-10.975c1.741-3.678,3.776-7.255,6.11-10.737c2.332-3.479,4.883-6.544,7.652-9.195
		c2.768-2.649,5.674-4.785,8.72-6.407c3.044-1.62,6.149-2.432,9.313-2.432c2.768,0,4.903,0.495,6.407,1.483
		c1.501,0.99,2.569,1.999,3.203,3.025c1.424,2.058,2.036,4.707,1.839,7.949c-0.198,3.244-1.168,6.922-2.907,11.034
		c-0.237,0.554-0.634,0.949-1.186,1.187c-0.555,0.237-1.109,0.237-1.661,0c-0.554-0.237-0.931-0.632-1.127-1.187
		c-0.199-0.553-0.178-1.107,0.059-1.661c2.925-6.959,3.4-11.942,1.424-14.949c-1.029-1.739-3.046-2.61-6.051-2.61
		c-2.69,0-5.359,0.753-8.008,2.254c-2.651,1.503-5.202,3.5-7.652,5.991c-2.453,2.492-4.728,5.339-6.822,8.542
		c-2.097,3.203-3.936,6.486-5.517,9.847c-1.583,3.363-2.807,6.685-3.678,9.966c-0.869,3.283-1.305,6.27-1.305,8.958
		c0,2.847,0.554,5.023,1.661,6.525c1.029,1.423,2.649,2.135,4.864,2.135c0.949,0,2.213-0.355,3.797-1.067
		c1.581-0.712,3.263-1.68,5.042-2.907c1.78-1.225,3.598-2.688,5.458-4.39c1.858-1.699,3.578-3.538,5.161-5.517
		c-2.532-0.869-4.588-2.175-6.169-3.915c-1.583-1.739-2.453-3.638-2.61-5.695c-0.08-0.712-0.021-1.542,0.178-2.491
		c0.196-0.95,0.632-1.938,1.305-2.966c0.671-1.027,1.7-2.076,3.084-3.144c1.383-1.068,3.222-2.036,5.517-2.907h0.119
		c0.078-0.078,0.237-0.119,0.475-0.119c1.344-0.475,2.807-0.356,4.39,0.356c1.898,0.871,3.084,2.176,3.559,3.915
		c1.187,3.956,0.315,8.623-2.61,14c1.898,0,3.856-0.237,5.873-0.712c2.017-0.475,4.034-1.324,6.051-2.551
		c2.017-1.226,4.014-2.848,5.992-4.864c1.976-2.018,3.874-4.568,5.695-7.653c0.315-0.475,0.75-0.79,1.305-0.949
		c0.553-0.158,1.107-0.078,1.661,0.237c0.475,0.317,0.79,0.752,0.949,1.305c0.158,0.554,0.078,1.109-0.237,1.661
		c-2.058,3.481-4.212,6.347-6.466,8.602c-2.254,2.254-4.549,4.074-6.881,5.457c-2.334,1.385-4.668,2.354-7,2.907
		c-2.334,0.555-4.608,0.83-6.822,0.83c-0.475,0-0.949-0.019-1.424-0.059C155.896,312.492,155.421,312.433,154.946,312.353z
		 M145.93,301.319c0.078,1.346,0.771,2.591,2.076,3.737c1.305,1.147,2.984,1.998,5.042,2.551c3.005-4.746,4.034-8.739,3.084-11.983
		c-0.159-0.395-0.356-0.691-0.593-0.89c-0.237-0.197-0.436-0.336-0.593-0.416c-0.712-0.395-1.187-0.475-1.424-0.237h-0.118
		c-2.533,0.949-4.449,2.058-5.754,3.322C146.345,298.67,145.77,299.975,145.93,301.319z"/>
	<path fill="#1E2A6D" d="M266.35,291.828c0.553,0.317,0.909,0.752,1.068,1.305c0.158,0.554,0.078,1.068-0.237,1.542
		c-0.634,1.108-1.602,2.749-2.907,4.924c-1.305,2.177-2.847,4.567-4.627,7.178s-3.758,5.301-5.932,8.068
		c-2.176,2.77-4.39,5.279-6.644,7.533c-2.254,2.255-4.508,4.094-6.763,5.518c-2.254,1.424-4.41,2.135-6.466,2.135
		c-0.317,0-0.634,0-0.949,0c-0.317,0-0.634-0.079-0.949-0.237c-2.215-0.552-3.757-1.976-4.627-4.271
		c-0.792-1.977-0.949-4.39-0.475-7.237s1.383-5.971,2.729-9.373c1.344-3.399,2.984-6.94,4.923-10.619
		c1.938-3.678,3.934-7.335,5.992-10.975c0.395-0.712,0.73-1.344,1.008-1.898c0.276-0.553,0.493-0.909,0.652-1.068
		c1.424-3.005,2.195-5.576,2.314-7.712c0.119-2.135-0.456-3.519-1.721-4.152c-1.108-0.552-2.61-0.593-4.508-0.119
		s-3.896,1.405-5.991,2.788c-2.097,1.385-4.173,3.224-6.229,5.517c-2.058,2.295-3.837,4.983-5.339,8.068l-19.338,38.916
		c-0.237,0.554-0.634,0.91-1.187,1.067c-0.554,0.159-1.068,0.119-1.542-0.118c-1.187-0.553-1.583-1.463-1.187-2.729
		c1.424-3.162,2.768-6.109,4.034-8.839c1.265-2.729,2.789-5.911,4.568-9.551c1.78-3.637,3.815-7.552,6.11-11.746
		c2.768-5.22,4.349-9.768,4.746-13.644c0.395-3.875-0.041-6.525-1.305-7.949c-0.949-1.027-2.236-1.463-3.856-1.305
		c-1.622,0.159-3.066,0.515-4.331,1.068c-1.82,0.712-3.876,2.235-6.169,4.567c-2.295,2.334-4.668,5.122-7.119,8.364
		c-2.453,3.244-4.944,6.783-7.475,10.619c-2.532,3.838-4.905,7.634-7.119,11.39c-2.213,3.758-4.25,7.317-6.11,10.679
		c-1.857,3.362-3.381,6.15-4.568,8.364c-0.315,0.554-0.73,0.931-1.246,1.127c-0.514,0.198-1.047,0.139-1.602-0.178
		c-0.553-0.237-0.929-0.633-1.127-1.187c-0.196-0.553-0.137-1.107,0.178-1.661l28.355-60.39c0.315-0.552,0.73-0.929,1.246-1.127
		c0.514-0.197,1.047-0.178,1.602,0.059c0.553,0.237,0.929,0.634,1.127,1.187c0.196,0.554,0.178,1.108-0.06,1.661l-10.44,22.067
		c3.322-4.666,6.603-8.798,9.847-12.398c3.242-3.599,6.248-5.951,9.017-7.06c1.898-0.79,3.559-1.246,4.983-1.364
		s2.669-0.059,3.737,0.178c1.068,0.237,1.958,0.593,2.669,1.067s1.264,0.949,1.661,1.424c0.87,0.949,1.522,2.136,1.958,3.559
		c0.434,1.424,0.652,3.007,0.652,4.746c1.818-2.373,3.776-4.39,5.873-6.051c2.095-1.661,4.171-2.966,6.229-3.916
		c2.056-0.949,4.052-1.522,5.991-1.72c1.938-0.196,3.619,0.06,5.042,0.771c0.552,0.237,1.226,0.711,2.017,1.423
		c0.79,0.712,1.403,1.741,1.839,3.085c0.434,1.346,0.513,3.066,0.237,5.161c-0.278,2.097-1.127,4.687-2.551,7.771
		c-0.16,0.317-0.397,0.732-0.712,1.246c-0.317,0.515-0.673,1.207-1.068,2.076c-0.634,1.108-1.464,2.571-2.492,4.39
		c-1.029,1.82-2.117,3.817-3.262,5.992c-1.148,2.177-2.254,4.431-3.322,6.763c-1.068,2.334-1.978,4.608-2.729,6.822
		c-0.753,2.215-1.266,4.232-1.542,6.051c-0.278,1.82-0.178,3.322,0.296,4.508c0.315,0.792,0.949,1.385,1.898,1.78
		c1.661,0.475,3.756-0.237,6.288-2.136c2.53-1.898,5.22-4.468,8.067-7.712c2.848-3.242,5.675-6.94,8.483-11.093
		c2.807-4.153,5.318-8.206,7.534-12.162c0.315-0.552,0.75-0.908,1.305-1.067C265.36,291.433,265.875,291.512,266.35,291.828z"/>
	<path fill="#1E2A6D" d="M254.841,325.641c-1.107-2.056-1.403-4.805-0.89-8.245c0.516-3.44,1.524-7.158,3.025-11.152
		c1.503-3.993,3.304-8.087,5.398-12.28c2.095-4.191,4.152-8.086,6.169-11.686c2.017-3.598,3.835-6.683,5.458-9.254
		c1.62-2.569,2.669-4.25,3.144-5.042c0.315-0.475,0.771-0.79,1.364-0.949c0.593-0.158,1.127-0.039,1.602,0.356
		c0.475,0.317,0.79,0.752,0.949,1.305c0.158,0.554,0.039,1.108-0.356,1.661c-1.741,2.77-3.6,5.813-5.576,9.136
		c-1.978,3.322-3.915,6.744-5.813,10.262c-1.898,3.521-3.639,7.041-5.22,10.56c-1.582,3.521-2.907,6.783-3.975,9.788
		c-1.068,3.007-1.759,5.677-2.076,8.009c-0.315,2.334-0.119,4.134,0.593,5.398c0.159,0.396,0.495,0.771,1.008,1.127
		c0.516,0.355,1.364,0.533,2.551,0.533c1.661,0,3.737-1.086,6.229-3.263c2.491-2.174,5.102-4.903,7.83-8.186
		c2.729-3.282,5.417-6.822,8.068-10.619c2.649-3.797,4.962-7.315,6.94-10.56c0.315-0.475,0.751-0.79,1.305-0.949
		c0.552-0.158,1.068-0.078,1.542,0.237c0.552,0.317,0.89,0.752,1.008,1.305c0.119,0.554,0.019,1.109-0.296,1.661
		c-0.634,0.949-1.602,2.473-2.907,4.568c-1.305,2.097-2.868,4.431-4.687,7c-1.82,2.571-3.796,5.221-5.932,7.949
		s-4.312,5.221-6.525,7.475c-2.215,2.254-4.41,4.093-6.584,5.517c-2.176,1.424-4.173,2.136-5.992,2.136
		c-2.213,0-3.875-0.415-4.983-1.246C256.107,327.361,255.315,326.513,254.841,325.641z M289.484,245.676
		c-0.634,0-1.147-0.197-1.542-0.593c-0.397-0.395-0.593-0.909-0.593-1.542c0-1.027,0.356-2.234,1.068-3.619
		c0.712-1.383,1.62-2.708,2.729-3.975c0.632-0.712,0.988-1.344,1.068-1.898c0.078-0.553,0.119-0.87,0.119-0.949
		c-0.08-0.553,0.059-1.047,0.415-1.483c0.356-0.434,0.849-0.691,1.483-0.771c0.552-0.078,1.047,0.041,1.483,0.356
		c0.434,0.317,0.691,0.792,0.771,1.424c0.078,0.159,0.06,0.871-0.059,2.135c-0.119,1.266-0.851,2.61-2.195,4.034
		c-0.949,1.108-1.622,2.117-2.017,3.025c-0.396,0.91-0.593,1.483-0.593,1.72c0,0.634-0.198,1.147-0.593,1.542
		C290.63,245.479,290.117,245.676,289.484,245.676z"/>
	<path fill="#1E2A6D" d="M339.314,290.76c0.552,0.237,0.929,0.634,1.127,1.187c0.196,0.554,0.137,1.108-0.178,1.661
		c-3.322,6.881-6.644,12.715-9.966,17.5c-3.322,4.786-6.703,8.82-10.144,12.102c-3.44,3.283-6.94,5.973-10.5,8.067
		c-3.56,2.095-7.198,3.856-10.915,5.279c-8.146,15.106-15.166,26.458-21.059,34.051c-5.892,7.593-11.093,11.982-15.602,13.169
		c-1.739,0.553-3.598,0.831-5.576,0.831c-2.451,0-4.547-0.495-6.288-1.483c-1.739-0.99-3.044-2.473-3.915-4.449
		c-0.87-1.978-1.146-4.271-0.831-6.881c0.317-2.61,1.246-5.38,2.788-8.305c1.542-2.928,3.737-5.873,6.584-8.839
		c2.848-2.967,6.407-5.755,10.678-8.364c4.668-2.848,9.076-5.122,13.229-6.822c4.152-1.702,8.246-3.263,12.279-4.687
		c0.87-0.317,1.68-0.593,2.432-0.83c0.751-0.237,1.522-0.516,2.313-0.831c0.395-0.871,0.79-1.661,1.187-2.373
		c0.395-0.712,0.751-1.383,1.068-2.017c0.078-0.157,0.196-0.315,0.356-0.475c0.078-0.157,0.119-0.395,0.119-0.712v-0.237
		c-0.317-0.395-1.109-0.593-2.373-0.593c-1.266,0-2.69,0.1-4.271,0.296c-1.582,0.199-3.144,0.456-4.687,0.771
		c-1.542,0.317-2.747,0.555-3.619,0.712c-3.005,0.634-5.179,1.009-6.525,1.127c-1.344,0.119-2.332-0.256-2.966-1.127
		c-0.158-0.157-0.296-0.534-0.415-1.127c-0.119-0.594,0.1-1.246,0.652-1.958c0.871-1.187,2.295-2.272,4.271-3.263
		c1.978-0.987,4.351-2.076,7.119-3.263c3.007-1.344,6.268-2.886,9.788-4.627c3.519-1.738,6.781-3.835,9.788-6.288
		c1.818-1.501,3.717-3.381,5.695-5.636c1.976-2.254,3.776-4.606,5.398-7.059c1.62-2.451,2.925-4.903,3.915-7.356
		c0.988-2.451,1.442-4.627,1.365-6.525c-0.237-2.688-1.424-4.746-3.56-6.169c-1.741-1.186-3.678-1.423-5.813-0.711
		c-3.244,1.108-6.407,3.44-9.491,7c-3.084,3.56-5.537,7.753-7.356,12.576c-0.554,1.187-1.464,1.583-2.729,1.187
		c-1.266-0.552-1.7-1.463-1.305-2.729c0.712-1.898,1.7-3.954,2.966-6.169c1.265-2.213,2.729-4.369,4.39-6.466
		c1.661-2.095,3.519-3.993,5.576-5.695c2.056-1.7,4.271-2.946,6.644-3.737c3.322-1.106,6.445-0.712,9.373,1.187
		c3.322,2.058,5.18,5.22,5.576,9.491c0.158,2.373-0.317,4.944-1.424,7.712c-1.108,2.77-2.551,5.537-4.331,8.305
		c-1.779,2.77-3.757,5.379-5.932,7.831c-2.177,2.452-4.253,4.508-6.229,6.17c-3.244,2.689-6.685,4.943-10.322,6.762
		c-3.639,1.821-7.078,3.441-10.322,4.865c-0.395,0.159-0.831,0.337-1.305,0.533c-0.475,0.198-0.908,0.377-1.305,0.534
		c4.271-0.869,7.89-1.364,10.856-1.483c2.966-0.118,5.081,0.653,6.347,2.313c1.107,1.584,1.146,3.521,0.119,5.813
		c3.085-1.344,6.09-3.044,9.017-5.102c2.925-2.056,5.813-4.627,8.661-7.711c2.848-3.085,5.654-6.763,8.424-11.034
		c2.768-4.271,5.535-9.254,8.305-14.949c0.237-0.553,0.632-0.909,1.187-1.068C338.205,290.483,338.759,290.522,339.314,290.76z
		 M261.01,379.742c2.373-0.635,4.964-2.414,7.771-5.339c2.809-2.928,5.636-6.389,8.483-10.382c2.848-3.995,5.597-8.245,8.246-12.754
		c2.651-4.509,5.042-8.701,7.178-12.576c0,0.078-0.08,0.119-0.237,0.119c-3.875,1.344-7.849,2.847-11.924,4.508
		c-4.073,1.661-8.323,3.875-12.754,6.645c-3.954,2.45-7.196,4.982-9.729,7.593c-2.531,2.61-4.468,5.141-5.813,7.593
		c-1.344,2.451-2.154,4.726-2.432,6.822c-0.276,2.095-0.137,3.776,0.415,5.042c0.712,1.582,1.999,2.61,3.856,3.085
		C255.929,380.572,258.242,380.454,261.01,379.742z"/>
	<path fill="#1E2A6D" d="M398.515,290.997c0.475,0.317,0.79,0.752,0.949,1.305c0.158,0.555,0.078,1.109-0.237,1.661
		c-0.634,0.949-1.622,2.512-2.966,4.687c-1.346,2.177-2.948,4.568-4.805,7.178c-1.859,2.61-3.896,5.321-6.11,8.128
		c-2.215,2.808-4.449,5.359-6.703,7.652c-2.254,2.295-4.49,4.173-6.703,5.635c-2.215,1.465-4.271,2.195-6.169,2.195
		c-2.215,0-3.876-0.434-4.983-1.305c-1.109-0.87-1.898-1.739-2.373-2.61c-0.634-1.106-0.99-2.392-1.068-3.856
		c-0.08-1.462,0-3.103,0.237-4.923c-2.927,3.719-5.932,6.763-9.017,9.135c-3.085,2.373-6.012,3.56-8.78,3.56
		c-1.82,0-3.44-0.315-4.864-0.949c-1.424-0.632-2.569-1.62-3.44-2.966c-1.661-2.136-2.492-5.141-2.492-9.017
		c0-3.085,0.475-6.446,1.424-10.085c0.949-3.638,2.295-7.297,4.034-10.975c1.741-3.678,3.776-7.255,6.11-10.737
		c2.332-3.479,4.883-6.544,7.652-9.195c2.768-2.649,5.674-4.785,8.72-6.407c3.044-1.62,6.149-2.432,9.313-2.432
		c1.818,0,3.263,0.337,4.331,1.008c1.067,0.673,1.839,1.364,2.313,2.076c1.344,1.741,2.017,4.114,2.017,7.119v0.475
		c1.344-2.373,2.531-4.369,3.56-5.991c1.027-1.621,1.739-2.748,2.135-3.381c0.395-0.475,0.87-0.79,1.424-0.949
		c0.552-0.158,1.068-0.039,1.542,0.356c0.552,0.317,0.89,0.752,1.008,1.305c0.119,0.554,0.019,1.108-0.296,1.661
		c-2.215,3.322-4.509,7.021-6.881,11.093c-2.373,4.075-4.627,8.246-6.763,12.517c-0.634,1.503-1.305,3.007-2.017,4.508
		c-0.711,1.503-1.464,3.046-2.254,4.627c-1.978,4.509-3.402,8.602-4.271,12.279c-0.872,3.679-0.872,6.389,0,8.128
		c0.237,0.396,0.611,0.771,1.127,1.127c0.513,0.355,1.364,0.533,2.551,0.533c1.739,0,3.895-1.127,6.466-3.381
		c2.569-2.254,5.259-5.081,8.068-8.483c2.807-3.399,5.556-7.039,8.246-10.915c2.688-3.875,5.022-7.434,7-10.678
		c0.315-0.553,0.75-0.89,1.305-1.009C397.407,290.582,397.961,290.682,398.515,290.997z M339.787,325.166
		c1.502,0,3.204-0.632,5.102-1.897c1.898-1.265,3.855-2.985,5.873-5.161c2.017-2.175,4.014-4.687,5.991-7.534
		c1.977-2.848,3.836-5.813,5.576-8.898c0.79-1.818,1.602-3.637,2.433-5.458c0.83-1.819,1.72-3.637,2.669-5.458
		c1.027-2.531,1.818-4.983,2.373-7.356c0.553-2.373,0.831-4.547,0.831-6.525c0-2.056-0.396-3.598-1.187-4.627
		c-0.159-0.315-0.475-0.612-0.949-0.89c-0.475-0.276-1.227-0.416-2.254-0.416c-2.69,0-5.359,0.753-8.008,2.254
		c-2.651,1.503-5.202,3.5-7.652,5.991c-2.453,2.492-4.728,5.339-6.822,8.542c-2.097,3.203-3.936,6.486-5.517,9.847
		c-1.583,3.363-2.807,6.685-3.678,9.966c-0.869,3.283-1.305,6.27-1.305,8.958c0,2.847,0.554,5.023,1.661,6.525
		C335.952,324.454,337.572,325.166,339.787,325.166z"/>
	<path fill="#1E2A6D" d="M468.869,293.607c0.078,0.634-0.079,1.168-0.475,1.602c-0.396,0.436-0.91,0.653-1.542,0.653
		c-2.058,0.159-3.975,0.237-5.754,0.237c-1.78,0-3.461-0.078-5.043-0.237c-2.295,4.588-4.627,8.919-6.999,12.991
		c-2.373,4.075-4.806,7.635-7.297,10.679c-2.491,3.045-5.083,5.457-7.771,7.236c-2.689,1.78-5.498,2.67-8.423,2.67
		c-0.475,0-0.949-0.019-1.424-0.06c-0.475-0.039-0.949-0.098-1.424-0.178c-2.848-0.632-4.865-2.175-6.051-4.627
		c-0.554-1.106-0.91-2.353-1.067-3.737c-0.16-1.383-0.16-2.866,0-4.449c-4.114,5.774-8.147,9.254-12.102,10.44
		c-1.346,0.396-2.512,0.516-3.5,0.356c-0.99-0.158-1.72-0.315-2.195-0.475c-2.688-0.396-4.666-1.246-5.932-2.551
		c-1.265-1.306-2.175-2.551-2.729-3.737c-1.027-2.451-1.264-5.438-0.712-8.958c0.554-3.519,1.583-7.196,3.085-11.033
		c1.503-3.836,3.303-7.712,5.398-11.627c2.095-3.916,4.153-7.493,6.169-10.737c2.017-3.242,3.835-6.01,5.458-8.305
		c1.62-2.293,2.669-3.796,3.144-4.508c0.395-0.475,0.87-0.771,1.424-0.89c0.552-0.119,1.068,0.021,1.542,0.415
		c0.475,0.397,0.771,0.872,0.89,1.424c0.119,0.554-0.021,1.068-0.415,1.542c-1.266,1.741-2.788,3.975-4.568,6.703
		c-1.78,2.729-3.619,5.676-5.517,8.839c-1.898,3.165-3.737,6.466-5.517,9.907c-1.78,3.44-3.263,6.763-4.449,9.966
		s-2.017,6.169-2.491,8.898c-0.475,2.729-0.315,4.964,0.474,6.703c0.949,2.058,2.848,3.322,5.695,3.797
		c0.237,0,0.514,0.079,0.831,0.237c0.078,0,0.356,0.059,0.831,0.178c0.475,0.118,1.187-0.019,2.136-0.415
		c0.79-0.237,1.779-0.771,2.966-1.603c1.187-0.83,2.551-2.114,4.093-3.855c1.542-1.739,3.222-4.072,5.042-7
		c1.818-2.926,3.796-6.604,5.932-11.034c0.315-0.79,0.593-1.442,0.831-1.958c0.237-0.514,0.434-0.89,0.593-1.127
		c0.237-0.475,0.632-0.81,1.187-1.009c0.553-0.196,1.067-0.178,1.542,0.06c0.553,0.237,0.929,0.634,1.127,1.187
		c0.197,0.554,0.179,1.108-0.059,1.661c-0.16,0.475-0.356,0.949-0.594,1.424s-0.475,0.949-0.712,1.424
		c-0.634,1.583-1.325,3.382-2.076,5.398c-0.753,2.017-1.364,4.055-1.839,6.11c-0.475,2.058-0.753,4.016-0.831,5.873
		c-0.08,1.859,0.196,3.381,0.831,4.567c0.552,1.267,1.542,2.017,2.966,2.254c2.451,0.475,4.903,0,7.356-1.423
		c2.45-1.424,4.844-3.519,7.178-6.288c2.332-2.769,4.627-6.051,6.881-9.848c2.255-3.797,4.488-7.831,6.703-12.102
		c-4.351-0.87-7.533-2.174-9.551-3.915c-2.017-1.739-3.381-3.519-4.093-5.339c-0.712-1.819-1.009-3.697-0.89-5.636
		c0.118-1.937,0.493-3.776,1.127-5.517c0.632-1.739,1.403-3.322,2.313-4.746c0.908-1.423,1.798-2.491,2.67-3.203
		c1.187-0.949,2.471-1.661,3.855-2.136c1.383-0.475,2.788-0.75,4.212-0.831c1.424-0.078,2.788,0.08,4.093,0.475
		c1.306,0.397,2.511,0.99,3.619,1.78c0.632,0.475,1.344,1.266,2.136,2.373c0.789,1.108,1.344,2.571,1.66,4.39
		c0.315,1.82,0.256,4.093-0.178,6.822c-0.436,2.729-1.563,5.953-3.381,9.669c-0.16,0.396-0.338,0.771-0.534,1.127
		c-0.198,0.356-0.376,0.732-0.534,1.127c1.265,0.08,2.59,0.119,3.975,0.119c1.383,0,2.866-0.078,4.449-0.237
		c0.553,0,1.048,0.178,1.483,0.534C468.532,292.48,468.79,292.975,468.869,293.607z M455.463,287.556
		c2.056-4.271,3.163-7.967,3.322-11.093c0.157-3.124-0.673-5.398-2.492-6.822c-1.186-0.949-2.65-1.423-4.39-1.423
		c-2.215,0-4.193,0.673-5.932,2.017c-0.634,0.475-1.306,1.246-2.017,2.313c-0.712,1.068-1.306,2.254-1.78,3.56
		s-0.771,2.69-0.89,4.152c-0.118,1.464,0.099,2.868,0.652,4.212c1.502,3.639,5.378,5.893,11.627,6.763
		c0.315-0.632,0.633-1.246,0.949-1.839C454.829,288.802,455.146,288.19,455.463,287.556z"/>
	<path fill="#1E2A6D" d="M528.784,290.997c0.475,0.317,0.789,0.752,0.949,1.305c0.157,0.555,0.077,1.109-0.237,1.661
		c-0.635,0.949-1.622,2.512-2.967,4.687c-1.346,2.177-2.947,4.568-4.805,7.178c-1.859,2.61-3.896,5.321-6.11,8.128
		c-2.215,2.808-4.449,5.359-6.703,7.652c-2.254,2.295-4.49,4.173-6.703,5.635c-2.216,1.465-4.271,2.195-6.17,2.195
		c-2.215,0-3.876-0.434-4.982-1.305c-1.108-0.87-1.898-1.739-2.373-2.61c-0.634-1.106-0.99-2.392-1.067-3.856
		c-0.08-1.462,0-3.103,0.237-4.923c-2.928,3.719-5.933,6.763-9.018,9.135c-3.085,2.373-6.012,3.56-8.779,3.56
		c-1.82,0-3.44-0.315-4.864-0.949c-1.424-0.632-2.569-1.62-3.44-2.966c-1.661-2.136-2.492-5.141-2.492-9.017
		c0-3.085,0.475-6.446,1.424-10.085c0.949-3.638,2.295-7.297,4.034-10.975c1.74-3.678,3.776-7.255,6.11-10.737
		c2.332-3.479,4.883-6.544,7.652-9.195c2.768-2.649,5.675-4.785,8.72-6.407c3.044-1.62,6.149-2.432,9.313-2.432
		c1.819,0,3.263,0.337,4.331,1.008c1.067,0.673,1.839,1.364,2.313,2.076c1.344,1.741,2.017,4.114,2.017,7.119v0.475
		c1.344-2.373,2.53-4.369,3.56-5.991c1.026-1.621,1.738-2.748,2.136-3.381c0.395-0.475,0.869-0.79,1.424-0.949
		c0.552-0.158,1.067-0.039,1.542,0.356c0.553,0.317,0.89,0.752,1.009,1.305c0.118,0.554,0.019,1.108-0.297,1.661
		c-2.216,3.322-4.509,7.021-6.882,11.093c-2.372,4.075-4.627,8.246-6.762,12.517c-0.635,1.503-1.306,3.007-2.018,4.508
		c-0.712,1.503-1.464,3.046-2.254,4.627c-1.979,4.509-3.401,8.602-4.271,12.279c-0.871,3.679-0.871,6.389,0,8.128
		c0.237,0.396,0.612,0.771,1.127,1.127c0.514,0.355,1.365,0.533,2.551,0.533c1.739,0,3.896-1.127,6.467-3.381
		c2.569-2.254,5.259-5.081,8.067-8.483c2.807-3.399,5.556-7.039,8.245-10.915c2.688-3.875,5.022-7.434,7-10.678
		c0.315-0.553,0.751-0.89,1.306-1.009C527.675,290.582,528.229,290.682,528.784,290.997z M470.056,325.166
		c1.502,0,3.203-0.632,5.102-1.897c1.898-1.265,3.855-2.985,5.873-5.161c2.017-2.175,4.014-4.687,5.991-7.534
		c1.977-2.848,3.836-5.813,5.576-8.898c0.79-1.818,1.602-3.637,2.433-5.458c0.83-1.819,1.72-3.637,2.669-5.458
		c1.027-2.531,1.819-4.983,2.373-7.356c0.553-2.373,0.831-4.547,0.831-6.525c0-2.056-0.397-3.598-1.187-4.627
		c-0.16-0.315-0.475-0.612-0.949-0.89c-0.475-0.276-1.228-0.416-2.255-0.416c-2.689,0-5.359,0.753-8.008,2.254
		c-2.651,1.503-5.202,3.5-7.652,5.991c-2.453,2.492-4.728,5.339-6.822,8.542c-2.097,3.203-3.936,6.486-5.517,9.847
		c-1.584,3.363-2.807,6.685-3.679,9.966c-0.869,3.283-1.305,6.27-1.305,8.958c0,2.847,0.555,5.023,1.661,6.525
		C466.22,324.454,467.841,325.166,470.056,325.166z"/>
	<path fill="#1E2A6D" d="M619.188,286.014c1.581-3.48,3.242-7.197,4.982-11.153c1.739-3.954,3.56-8.186,5.458-12.694
		c1.897-4.429,1.818-8.501-0.237-12.22c-1.187-2.213-2.788-3.954-4.806-5.22c-2.017-1.265-3.896-2.056-5.635-2.373
		c-6.013-1.106-11.627-1.086-16.848,0.06c-5.221,1.147-10.007,2.888-14.355,5.22c-4.352,2.334-8.228,5.023-11.627,8.067
		c-3.402,3.046-6.27,5.953-8.602,8.72c-2.334,2.77-4.134,5.102-5.398,7s-1.898,2.888-1.898,2.966
		c-0.315,0.474-0.751,0.792-1.305,0.949c-0.553,0.16-1.068,0.08-1.543-0.237c-0.552-0.315-0.908-0.75-1.067-1.305
		c-0.157-0.553-0.078-1.068,0.237-1.542c0-0.078,0.673-1.146,2.017-3.204c1.346-2.056,3.281-4.527,5.813-7.415
		c2.53-2.886,5.615-5.971,9.254-9.254c3.638-3.281,7.79-6.169,12.458-8.661c4.666-2.491,9.807-4.349,15.424-5.576
		c5.614-1.225,11.665-1.246,18.151-0.059c2.057,0.396,4.409,1.385,7.06,2.966c2.649,1.583,4.805,3.876,6.466,6.881
		c0.87,1.661,1.522,3.837,1.958,6.525c0.434,2.69-0.101,5.813-1.602,9.373c-1.583,3.719-3.085,7.237-4.509,10.56
		c-1.424,3.322-2.809,6.486-4.152,9.491c2.293-0.87,4.666-1.72,7.118-2.551c2.451-0.831,4.942-1.68,7.475-2.551
		c0.553-0.158,1.087-0.119,1.602,0.119c0.514,0.237,0.85,0.673,1.009,1.305c0.237,0.554,0.217,1.088-0.06,1.602
		c-0.277,0.515-0.693,0.851-1.245,1.008c-3.322,1.108-6.525,2.215-9.61,3.322c-3.085,1.108-6.051,2.215-8.898,3.322
		c-3.559,7.515-6.842,14-9.847,19.458c-3.007,5.458-5.795,10.185-8.364,14.178c-2.571,3.995-4.944,7.415-7.119,10.263
		c-2.176,2.848-4.212,5.458-6.11,7.83c-4.43,5.615-8.82,9.511-13.169,11.687c-4.351,2.175-8.266,3.263-11.745,3.263
		c-2.136,0-3.916-0.278-5.339-0.83c-2.769-1.029-4.924-2.69-6.467-4.983c-1.542-2.295-2.272-5.023-2.194-8.187
		c0.079-3.796,1.325-7.948,3.737-12.457c2.413-4.509,6.288-9.194,11.627-14.06c5.339-4.864,12.259-9.807,20.762-14.83
		C596.545,295.763,606.926,290.839,619.188,286.014z M587.51,338.573c1.738-2.216,3.618-4.647,5.636-7.297
		c2.017-2.649,4.211-5.793,6.584-9.432c2.373-3.638,4.942-7.908,7.712-12.813c2.768-4.903,5.772-10.679,9.017-17.322
		c-10.915,4.508-20.189,9.076-27.821,13.703c-7.634,4.627-13.862,9.136-18.687,13.525c-4.825,4.39-8.323,8.563-10.5,12.517
		c-2.174,3.954-3.263,7.514-3.263,10.678c-0.077,2.294,0.397,4.23,1.424,5.813c1.029,1.582,2.492,2.688,4.39,3.322
		c1.502,0.553,3.243,0.751,5.221,0.594c1.977-0.16,4.093-0.732,6.348-1.721c2.254-0.99,4.567-2.433,6.94-4.33
		C582.883,343.912,585.215,341.498,587.51,338.573z"/>
	<path fill="#1E2A6D" d="M695.947,291.946c0.552,0.317,0.89,0.752,1.008,1.305c0.119,0.554,0.019,1.109-0.296,1.661
		c-0.555,0.871-1.444,2.334-2.67,4.39c-1.228,2.058-2.689,4.352-4.39,6.882c-1.702,2.532-3.601,5.143-5.695,7.83
		c-2.097,2.69-4.212,5.161-6.347,7.415c-2.136,2.255-4.292,4.094-6.467,5.518c-2.176,1.424-4.173,2.136-5.991,2.136h-0.475
		c-3.244-0.078-5.498-1.187-6.763-3.322c-0.554-1.027-0.83-2.175-0.83-3.44l-0.712,0.712c-2.295,2.135-4.588,3.736-6.881,4.805
		c-2.295,1.067-4.47,1.602-6.525,1.602c-1.187,0-2.453-0.196-3.797-0.593c-2.532-0.87-4.647-2.59-6.348-5.161
		c-1.699-2.569-2.865-5.832-3.5-9.788c-0.552-3.322-0.475-6.763,0.237-10.322s1.78-7.019,3.204-10.381
		c1.423-3.361,3.044-6.544,4.864-9.551c1.818-3.005,3.538-5.674,5.16-8.008c1.621-2.332,3.025-4.212,4.212-5.636
		c1.187-1.423,1.857-2.213,2.018-2.373c0.395-0.395,0.89-0.612,1.482-0.653c0.594-0.039,1.127,0.139,1.602,0.534
		c0.396,0.396,0.612,0.89,0.653,1.483c0.038,0.593-0.14,1.088-0.534,1.483c-0.08,0-0.652,0.653-1.721,1.958
		c-1.067,1.305-2.373,3.046-3.915,5.22c-1.542,2.177-3.185,4.687-4.924,7.534c-1.74,2.847-3.303,5.854-4.687,9.017
		c-1.385,3.165-2.432,6.389-3.144,9.67c-0.712,3.283-0.83,6.427-0.355,9.432c1.106,6.329,3.44,10.165,6.999,11.509
		c3.797,1.187,8.107-0.434,12.933-4.864c2.768-2.53,5.457-6.17,8.067-10.915c0.315-0.475,0.594-0.968,0.831-1.483
		c0.236-0.514,0.474-1.048,0.711-1.602c0.396-0.633,0.73-1.226,1.009-1.78c0.276-0.552,0.573-1.146,0.89-1.779
		c0.396-0.79,0.79-1.561,1.187-2.313c0.396-0.751,0.79-1.561,1.187-2.432c1.344-2.848,2.747-5.951,4.212-9.313
		c1.463-3.361,3.064-7.06,4.805-11.093c0.633-1.424,1.265-2.886,1.898-4.39c0.632-1.501,1.306-3.044,2.017-4.627
		c0.237-0.553,0.633-0.929,1.187-1.127c0.553-0.196,1.107-0.178,1.661,0.06c1.265,0.554,1.62,1.464,1.068,2.729
		c-0.712,1.583-1.385,3.144-2.018,4.687c-0.634,1.542-1.266,3.025-1.898,4.449c-1.74,4.034-3.342,7.732-4.805,11.093
		c-1.465,3.363-2.868,6.466-4.212,9.314c0,0.079-0.041,0.118-0.118,0.118v0.119c-1.029,2.215-2.018,4.271-2.966,6.169
		c-0.949,1.898-1.898,3.64-2.848,5.221c-0.555,1.187-1.108,2.394-1.661,3.619c-0.555,1.227-1.029,2.413-1.424,3.559
		c-0.396,1.147-0.673,2.195-0.83,3.145c-0.16,0.949-0.08,1.701,0.237,2.254c0.314,0.396,0.789,0.693,1.423,0.89
		c0.633,0.198,1.265,0.297,1.898,0.297c1.107,0.08,2.412-0.395,3.915-1.424c1.502-1.027,3.104-2.412,4.806-4.152
		c1.699-1.739,3.459-3.737,5.279-5.991c1.818-2.255,3.578-4.587,5.279-7c1.7-2.412,3.302-4.785,4.806-7.119
		c1.501-2.332,2.847-4.488,4.033-6.466c0.396-0.475,0.87-0.79,1.424-0.949C694.957,291.551,695.473,291.631,695.947,291.946z"/>
	<path fill="#1E2A6D" d="M753.725,291.828c1.264,0.554,1.62,1.503,1.067,2.847c-2.215,5.38-4.707,10.165-7.475,14.356
		c-2.77,4.193-5.616,7.771-8.542,10.737c-2.927,2.966-5.774,5.261-8.542,6.881c-2.77,1.622-5.262,2.551-7.475,2.788h-0.712
		c-2.215,0-3.797-0.79-4.746-2.373c-2.215-3.559-0.712-9.807,4.509-18.745c3.242-5.615,5.636-10.382,7.178-14.297
		c1.542-3.916,2.53-7.178,2.966-9.788c0.435-2.61,0.475-4.666,0.119-6.169c-0.356-1.501-0.813-2.61-1.364-3.322
		c-1.029-1.344-2.313-2.115-3.856-2.313c-1.542-0.196-2.828-0.178-3.855,0.06c-2.453,0.634-4.944,1.898-7.475,3.796
		c-2.532,1.898-5.042,4.173-7.534,6.822c-2.491,2.651-4.943,5.558-7.355,8.72c-2.413,3.164-4.687,6.347-6.822,9.55
		c-2.135,3.204-4.111,6.348-5.932,9.433c-1.818,3.085-3.399,5.813-4.746,8.187l-4.508,8.661c-0.315,0.475-0.751,0.812-1.306,1.008
		c-0.552,0.198-1.067,0.14-1.542-0.178c-0.553-0.237-0.929-0.632-1.127-1.187c-0.196-0.553-0.138-1.106,0.178-1.661
		c0.159-0.237,0.673-1.225,1.542-2.966c0.872-1.738,2.059-3.993,3.56-6.763l25.271-47.338c0.315-0.553,0.751-0.909,1.306-1.068
		c0.553-0.158,1.067-0.119,1.542,0.119c1.187,0.712,1.502,1.702,0.949,2.966l-6.763,12.576c3.242-3.637,6.505-6.802,9.788-9.491
		c3.281-2.688,6.585-4.468,9.906-5.339c0.949-0.237,1.958-0.356,3.025-0.356c1.068,0,2.154,0.139,3.263,0.415
		c1.107,0.278,2.175,0.712,3.204,1.305c1.026,0.593,1.937,1.405,2.729,2.432c5.141,6.644,2.254,19.418-8.661,38.321
		c-1.583,2.771-2.71,5.043-3.381,6.822c-0.673,1.78-1.108,3.204-1.306,4.271c-0.198,1.067-0.237,1.839-0.118,2.313
		c0.118,0.475,0.178,0.753,0.178,0.83c0.078,0.08,0.196,0.199,0.356,0.356c0.157,0.159,0.552,0.198,1.186,0.118
		c1.582-0.157,3.56-0.949,5.933-2.372c2.373-1.424,4.864-3.46,7.475-6.11c2.61-2.649,5.238-5.951,7.89-9.907
		c2.648-3.954,5.042-8.542,7.178-13.763c0.237-0.552,0.632-0.949,1.187-1.186C752.616,291.59,753.17,291.59,753.725,291.828z"/>
</g>
</svg>
